<svg id="Capa_1" xmlns="http://www.w3.org/2000/svg" xmlns:xlink="http://www.w3.org/1999/xlink" viewBox="0 0 560 100" style="enable-background:new 0 0 560 100"><style>.st0{fill:#002c5f}.st1{fill:#fff}</style><g><path class="st0" d="M96.8 49.6c0 26-21 47-47 47s-47-21-47-47 21-47 47-47C75.7 2.6 96.8 23.6 96.8 49.6"/><path class="st1" d="M41.8 7.6h14.4L67 38.3l17.6-1.8-15.3 7.9 13.8 38h-12L59.3 50 35.7 62.6l-7.1 19.9H16.7l4.7-12.4-9.5 5.2 10.7-9.1 6.9-21.7L18 44l12.6-1.4L41.8 7.6zM43 40.8l13.2-1.4-6.7-17.6-6.5 19zM38.9 52.7l9.5-7.6-6.6-.5L38.9 52.7z"/><path d="M110.9 49.7 123.2 17h4.6L141 49.7h-4.8l-3.8-9.9h-13.5l-3.5 9.9H110.9zM120.2 36.3h10.9l-3.4-9.1c-1-2.7-1.8-5-2.3-6.8-.4 2.1-1 4.2-1.8 6.3L120.2 36.3zM144.5 49.7V17h23.3v3.8h-19v10h17.8v3.8h-17.8v11.1h19.8v3.8L144.5 49.7v0zM174.6 49.7V17h14.3c2.9.0 5.1.3 6.6.9 1.5.6 2.7 1.6 3.6 3.1.9 1.5 1.4 3.1 1.4 5 0 2.3-.7 4.3-2.2 5.9-1.4 1.6-3.8 2.6-6.9 3 1.1.6 2 1.1 2.6 1.6 1.3 1.1 2.4 2.6 3.5 4.3l5.6 8.9h-5.4l-4.3-6.8c-1.3-2-2.2-3.4-3-4.5-.8-1-1.5-1.8-2.2-2.2-.6-.4-1.3-.7-1.9-.9-.5-.1-1.3-.2-2.4-.2h-5v14.5L174.6 49.7v0zM178.8 31.4h9.1c1.9.0 3.4-.2 4.6-.6 1.1-.4 1.9-1 2.5-1.9.6-.9.9-1.8.9-3 0-1.5-.6-2.8-1.7-3.8-1.1-1-2.9-1.5-5.2-1.5h-10.2V31.4zM205.7 33.8c0-5.5 1.4-9.7 4.3-12.8 2.9-3 6.6-4.6 11.1-4.6 3 0 5.7.7 8 2.2 2.4 1.4 4.2 3.4 5.5 6 1.3 2.6 1.8 5.5 1.8 8.7.0 3.3-.6 6.3-2 8.9-1.3 2.6-3.2 4.6-5.6 5.9-2.4 1.4-5.1 2-7.9 2-3 0-5.8-.7-8.1-2.2-2.4-1.4-4.2-3.5-5.5-6.1C206.3 39.4 205.7 36.6 205.7 33.8M210.1 33.8c0 3.9 1 7.1 3.1 9.3 2.1 2.2 4.7 3.4 7.9 3.4 3.2.0 5.9-1.1 7.9-3.4 2.1-2.3 3.1-5.5 3.1-9.7.0-2.6-.5-5-1.4-7-.9-2-2.2-3.5-3.9-4.7-1.7-1.1-3.6-1.6-5.8-1.6-3 0-5.6 1-7.8 3.1C211.1 25.4 210.1 28.9 210.1 33.8M241.9 49.7V17h4.4l16.9 25.7V17h4.1v32.7H263L246 24v25.7C246 49.7 241.9 49.7 241.9 49.7zM271 49.7 283.3 17h4.6l13.2 32.7h-4.9l-3.8-9.9h-13.5l-3.5 9.9H271zM280.3 36.3h10.9l-3.4-9.1c-1-2.7-1.8-5-2.3-6.8-.4 2.1-1 4.2-1.8 6.3L280.3 36.3zM282.9 15l2.9-6.3h5.2l-4.8 6.3H282.9zM325.8 17h4.3v18.9c0 3.3-.4 5.9-1.1 7.9s-2.1 3.5-4 4.7c-1.9 1.2-4.4 1.8-7.5 1.8-3 0-5.5-.6-7.4-1.6-1.9-1-3.3-2.6-4.1-4.6-.8-2-1.2-4.7-1.2-8.2V17.1h4.3v18.8c0 2.8.2 5 .8 6.3.5 1.4 1.4 2.4 2.6 3.1 1.3.7 2.8 1.1 4.7 1.1 3.1.0 5.4-.7 6.7-2.2 1.4-1.4 2-4.3 2-8.3L325.8 17v0zm19.5 32.7V20.8h-10.6V17h25.6v3.8h-10.7v28.9H345.3zm20-32.7h4.3v32.7h-4.3V17zM400.1 38.2l4.3 1.1c-.9 3.5-2.5 6.3-4.8 8.1-2.3 1.8-5.1 2.8-8.5 2.8-3.4.0-6.3-.7-8.5-2.2-2.2-1.4-3.8-3.5-5-6.3-1.1-2.7-1.7-5.6-1.7-8.7.0-3.4.6-6.3 1.9-8.9 1.3-2.6 3.1-4.5 5.5-5.8 2.4-1.3 5-2 7.8-2 3.2.0 5.9.8 8.1 2.5 2.2 1.7 3.8 4 4.6 7.1l-4.2 1c-.7-2.4-1.8-4.1-3.3-5.2s-3.2-1.6-5.4-1.6c-2.5.0-4.6.6-6.2 1.8-1.7 1.2-2.8 2.8-3.5 4.9-.6 2-1 4.1-1 6.3.0 2.8.4 5.2 1.2 7.3.8 2.1 2 3.6 3.7 4.7 1.7 1 3.5 1.5 5.5 1.5 2.4.0 4.4-.7 6.1-2.1C398.4 43.1 399.5 41 400.1 38.2m6 11.5L418.5 17h4.6l13.2 32.7h-4.9l-3.8-9.9h-13.5l-3.5 9.9h-4.5zM415.4 36.3h10.9l-3.4-9.1c-1-2.7-1.8-5-2.3-6.8-.4 2.1-1 4.2-1.8 6.3L415.4 36.3zM472.7 38.2l4.3 1.1c-.9 3.5-2.5 6.3-4.8 8.1-2.3 1.8-5.1 2.8-8.5 2.8-3.4.0-6.3-.7-8.5-2.2-2.2-1.4-3.8-3.5-5-6.3-1.1-2.7-1.7-5.6-1.7-8.7.0-3.4.6-6.3 1.9-8.9 1.3-2.6 3.1-4.5 5.5-5.8 2.3-1.3 5-2 7.8-2 3.2.0 5.9.8 8.1 2.5 2.2 1.7 3.7 4 4.6 7.1l-4.2 1c-.7-2.4-1.8-4.1-3.3-5.2s-3.2-1.6-5.4-1.6c-2.5.0-4.6.6-6.2 1.8-1.7 1.2-2.8 2.8-3.5 4.9-.6 2-1 4.1-1 6.3.0 2.8.4 5.2 1.2 7.3.8 2.1 2 3.6 3.7 4.7 1.7 1 3.5 1.5 5.5 1.5 2.4.0 4.4-.7 6.1-2.1C471 43.1 472.1 41 472.7 38.2M483 17h4.3v32.7H483V17zm21 32.7L491.5 17h4.7l8.3 23.7c.6 1.9 1.2 3.7 1.7 5.4.5-1.8 1-3.5 1.8-5.4l8.7-23.7h4.3l-12.7 32.7C508.3 49.7 504 49.7 504 49.7zM525.5 17h4.3v32.7h-4.3V17zM537.1 49.7V17h4.3v28.9h15.9v3.8C557.2 49.7 537.1 49.7 537.1 49.7z"/><path d="M122.8 60.6h2.4V73c0 2.2-.2 3.8-.6 5.1-.4 1.3-1.2 2.3-2.2 3.1-1.1.8-2.6 1.2-4.3 1.2-1.8.0-3.1-.3-4.3-1s-1.8-1.7-2.3-3c-.5-1.3-.7-3.1-.7-5.4V60.6h2.4V73c0 1.8.2 3.2.5 4.1.3.9.8 1.6 1.5 2.1.7.5 1.6.7 2.6.7 1.8.0 3-.5 3.8-1.4.8-1 1.1-2.8 1.1-5.5L122.8 60.6v0zM129.3 82.1V60.6h2.5l9.7 16.9V60.6h2.3v21.5h-2.5l-9.7-16.9v16.9H129.3zM148.4 60.6h2.4v21.5h-2.4V60.6zM155.2 82.1V60.6h6.3c1.4.0 2.6.1 3.3.3 1 .3 1.9.8 2.7 1.5 1 1 1.7 2.2 2.2 3.7s.7 3.2.7 5.1c0 1.6-.2 3-.5 4.3-.3 1.3-.7 2.3-1.3 3.1-.5.8-1 1.4-1.7 1.9-.6.5-1.4.8-2.2 1-.9.2-1.8.4-3 .4h-6.5V82.1zM157.6 79.5h3.9c1.2.0 2.2-.2 2.9-.4s1.3-.6 1.7-1.1c.6-.6 1-1.6 1.4-2.7.3-1.1.5-2.5.5-4.2.0-2.2-.3-4-1-5.2-.6-1.2-1.4-2-2.3-2.4-.6-.3-1.7-.4-3.1-.4h-3.8L157.6 79.5v0 0zM171.8 82.1l7.1-21.5h2.6l7.5 21.5h-2.8l-2.2-6.5h-7.7l-2 6.5h-2.5zM177.1 73.3h6.3l-1.9-5.9c-.6-1.8-1-3.3-1.3-4.5-.2 1.4-.6 2.7-1 4.1L177.1 73.3zM191 82.1V60.6h6.3c1.4.0 2.6.1 3.3.3 1 .3 1.9.8 2.7 1.5 1 1 1.7 2.2 2.2 3.7s.7 3.2.7 5.1c0 1.6-.2 3-.5 4.3-.3 1.3-.7 2.3-1.3 3.1-.5.8-1 1.4-1.7 1.9-.6.5-1.4.8-2.2 1-.9.2-1.8.4-3 .4H191V82.1zM193.5 79.5h3.9c1.2.0 2.2-.2 2.9-.4s1.3-.6 1.7-1.1c.6-.6 1-1.6 1.4-2.7.3-1.1.5-2.5.5-4.2.0-2.2-.3-4-1-5.2-.6-1.2-1.4-2-2.3-2.4-.6-.3-1.7-.4-3.1-.4h-3.8L193.5 79.5v0 0zM213.4 82.1l7.1-21.5h2.6l7.5 21.5h-2.8l-2.2-6.5H218l-2 6.5H213.4zM218.7 73.3h6.3l-1.9-5.9c-.6-1.8-1-3.3-1.3-4.5-.2 1.4-.6 2.7-1 4.1L218.7 73.3zM232.6 82.1V60.6h6.3c1.4.0 2.6.1 3.3.3 1 .3 1.9.8 2.7 1.5 1 1 1.7 2.2 2.2 3.7s.7 3.2.7 5.1c0 1.6-.2 3-.5 4.3-.3 1.3-.7 2.3-1.3 3.1-.5.8-1 1.4-1.7 1.9-.6.5-1.4.8-2.2 1-.9.2-1.8.4-3 .4h-6.5V82.1zM235 79.5h3.9c1.2.0 2.2-.2 2.9-.4s1.3-.6 1.7-1.1c.6-.6 1-1.6 1.4-2.7.3-1.1.5-2.5.5-4.2.0-2.2-.3-4-1-5.2-.6-1.2-1.4-2-2.3-2.4-.6-.3-1.7-.4-3.1-.4h-3.8L235 79.5v0 0zM251.2 82.1V60.6h3.7l4.3 15.2c.4 1.4.7 2.5.9 3.2.2-.8.6-1.9 1-3.4l4.4-15h3.3v21.5h-2.3v-18l-5.4 18h-2.2l-5.4-18.3v18.3H251.2zM273.1 60.6h2.4v21.5h-2.4V60.6zM279.9 82.1V60.6h2.5l9.7 16.9V60.6h2.3v21.5h-2.5l-9.7-16.9v16.9H279.9zM299 60.6h2.4v21.5H299V60.6zM304.9 75.2l2.3-.2c.1 1 .4 1.9.8 2.6.4.7 1 1.3 1.8 1.7.8.4 1.8.6 2.8.6 1 0 1.8-.2 2.5-.5.7-.3 1.3-.8 1.6-1.4s.6-1.2.6-1.8-.2-1.3-.5-1.8c-.3-.5-.9-1-1.7-1.3-.5-.2-1.6-.6-3.3-1-1.7-.5-2.9-1-3.5-1.4-.9-.6-1.5-1.2-2-2-.4-.8-.6-1.7-.6-2.6.0-1.1.2-2.1.8-3 .6-1 1.3-1.7 2.3-2.2 1-.5 2.2-.7 3.4-.7 1.4.0 2.6.2 3.6.8 1 .5 1.8 1.3 2.4 2.2.6 1 .9 2.2.9 3.4l-2.3.2c-.2-1.4-.6-2.4-1.3-3-.7-.7-1.8-1-3.2-1-1.4.0-2.6.3-3.2 1-.6.6-1 1.4-1 2.2.0.8.2 1.4.7 1.9.5.5 1.7 1 3.7 1.5 2 .5 3.4 1 4.1 1.4 1 .6 1.8 1.3 2.4 2.2.5.9.8 1.9.8 3s-.2 2.2-.9 3.2c-.6 1-1.4 1.8-2.4 2.4-1 .6-2.2.9-3.5.9-1.7.0-3-.3-4.2-.9-1.1-.6-2-1.4-2.6-2.6C305.2 77.9 304.9 76.7 304.9 75.2M327.6 82.1v-19h-6.1v-2.6h14.7v2.6h-6.1v19H327.6zM338.7 82.1V60.6h8.2c1.7.0 2.9.2 3.8.6s1.5 1 2.1 2.1c.5 1 .8 2.1.8 3.2.0 1.5-.4 2.8-1.3 3.8-.9 1-2.2 1.7-3.9 2 .6.3 1.1.7 1.4 1 .7.7 1.4 1.7 2 2.9l3.2 5.9h-3l-2.4-4.5c-.7-1.3-1.3-2.2-1.8-3-.5-.7-.9-1.1-1.2-1.4-.4-.2-.7-.5-1.1-.6-.2-.1-.7-.1-1.4-.1h-2.8v9.5H338.7V82.1zm2.5-12h5.2c1.1.0 2-.2 2.6-.4.6-.2 1.1-.7 1.4-1.3.3-.6.5-1.2.5-1.9.0-1-.3-1.8-1-2.5-.6-.6-1.6-1-3-1H341L341.2 70.1v0zM355.3 82.1l7.1-21.5h2.6l7.5 21.5h-2.8l-2.2-6.5h-7.6l-2 6.5H355.3zM360.6 73.3h6.3l-1.9-5.9c-.6-1.8-1-3.3-1.3-4.5-.2 1.4-.6 2.7-1 4.1L360.6 73.3zM377.3 82.1v-19h-6.1v-2.6h14.7v2.6h-6.1v19H377.3zM388.8 60.6h2.4v21.5h-2.4V60.6zM400.8 82.1l-7.1-21.5h2.6l4.8 15.6c.4 1.3.7 2.4 1 3.5.3-1.2.6-2.3 1-3.5l5-15.6h2.5l-7.2 21.5H400.8v0zm8 0 7.1-21.5h2.6l7.5 21.5h-2.7l-2.2-6.5h-7.7l-2 6.5H408.8zM414.1 73.3h6.3l-1.9-5.9c-.6-1.8-1-3.3-1.3-4.5-.2 1.4-.6 2.7-1 4.1L414.1 73.3zM433.8 82.1V60.6h13.4v2.6h-10.9v6.6h10.2v2.5h-10.2v7.3h11.3v2.6L433.8 82.1v0zM450.2 75.2l2.3-.2c.1 1 .4 1.9.8 2.6.4.7 1 1.3 1.8 1.7.8.4 1.8.6 2.8.6 1 0 1.8-.2 2.5-.5.7-.3 1.3-.8 1.6-1.4.3-.6.6-1.2.6-1.8s-.2-1.3-.5-1.8c-.3-.5-.9-1-1.7-1.3-.5-.2-1.6-.6-3.3-1-1.7-.5-2.9-1-3.5-1.4-.9-.6-1.5-1.2-2-2-.4-.8-.6-1.7-.6-2.6.0-1.1.2-2.1.8-3 .6-1 1.3-1.7 2.3-2.2 1-.5 2.2-.7 3.4-.7 1.4.0 2.6.2 3.6.8 1 .5 1.8 1.3 2.4 2.2.6 1 .9 2.2.9 3.4l-2.3.2c-.2-1.4-.6-2.4-1.3-3-.7-.7-1.8-1-3.2-1s-2.6.3-3.2 1c-.6.6-1 1.4-1 2.2.0.8.2 1.4.7 1.9.5.5 1.7 1 3.7 1.5 2 .5 3.4 1 4.1 1.4 1 .6 1.8 1.3 2.4 2.2.5.9.8 1.9.8 3s-.3 2.2-.9 3.2c-.6 1-1.4 1.8-2.4 2.4-1 .6-2.2.9-3.5.9-1.7.0-3-.3-4.2-.9-1.1-.6-2-1.4-2.6-2.6C450.6 77.9 450.2 76.7 450.2 75.2M468.2 82.1V60.6h7c1.2.0 2.2.1 2.8.2.9.2 1.7.5 2.2 1 .6.5 1.1 1.2 1.4 2.1.4.9.6 1.8.6 3 0 1.8-.5 3.4-1.5 4.7-1 1.3-2.8 1.9-5.5 1.9h-4.7v8.7h-2.4V82.1zM470.6 70.8h4.8c1.6.0 2.7-.3 3.4-1s1-1.7 1-2.9c0-.9-.2-1.7-.6-2.3-.4-.6-.9-1-1.5-1.3-.4-.2-1.2-.2-2.2-.2h-4.8V70.8zM485.4 82.1V60.6h13.3v2.6h-10.9v6.6H498v2.5h-10.2v7.3h11.3v2.6L485.4 82.1v0zM515.8 74.6l2.4.7c-.5 2.3-1.4 4.1-2.7 5.4-1.4 1.2-3 1.8-4.9 1.8-2 0-3.6-.5-4.9-1.4-1.3-1-2.2-2.3-2.8-4.1-.6-1.8-1-3.7-1-5.8.0-2.2.4-4.2 1.1-5.9.7-1.7 1.8-3 3.1-3.8 1.4-.9 2.8-1.3 4.5-1.3 1.8.0 3.4.6 4.7 1.6 1.3 1.1 2.2 2.6 2.6 4.7l-2.4.6c-.4-1.5-1-2.7-1.8-3.4-.8-.7-1.8-1-3-1-1.4.0-2.6.4-3.5 1.2-1 .8-1.6 1.8-2 3.2-.4 1.4-.6 2.7-.6 4.2.0 1.8.2 3.4.7 4.8.5 1.4 1.2 2.4 2.2 3s2 1 3.1 1c1.4.0 2.6-.5 3.4-1.4C514.8 77.8 515.4 76.3 515.8 74.6M521.7 60.6h2.4v21.5h-2.4V60.6zM526.3 82.1l7.1-21.5h2.6l7.5 21.5h-2.8l-2.2-6.5h-7.7l-2 6.5h-2.5zM531.7 73.3h6.3l-1.9-5.9c-.6-1.8-1-3.3-1.3-4.5-.2 1.4-.6 2.7-1 4.1L531.7 73.3zM545.5 82.1V60.6h2.4v19h9.1v2.6L545.5 82.1v0z"/></g></svg>